<svg width="32" height="32" viewBox="0 0 32 32" fill="none" xmlns="http://www.w3.org/2000/svg">
<g id="Left">
<path id="Vector" d="M23.5723 5.5099V2.74918C23.5723 2.5099 23.2973 2.37775 23.1116 2.52418L7.0116 15.0992C6.87481 15.2056 6.76412 15.3418 6.68798 15.4974C6.61185 15.6531 6.57227 15.8241 6.57227 15.9974C6.57227 16.1707 6.61185 16.3417 6.68798 16.4973C6.76412 16.653 6.87481 16.7892 7.0116 16.8956L23.1116 29.4706C23.3009 29.617 23.5723 29.4849 23.5723 29.2456V26.4849C23.5723 26.3099 23.4902 26.142 23.3545 26.0349L10.4973 15.9992L23.3545 5.9599C23.4902 5.85275 23.5723 5.6849 23.5723 5.5099Z" fill="#D9D9D9"/>
</g>
</svg>
