<svg width="17" height="16" viewBox="0 0 17 16" fill="none" xmlns="http://www.w3.org/2000/svg">
<g id="wrapper" clip-path="url(#clip0_329_324)">
<path id="Union" d="M8.67328 0.322415C5.95006 0.315272 3.55363 1.7242 2.18399 3.85277C2.12328 3.94742 2.19113 4.07241 2.30363 4.07241H3.55899C3.6447 4.07241 3.72506 4.03491 3.77863 3.96884C3.90363 3.81706 4.03756 3.67063 4.17863 3.53134C4.76078 2.95099 5.43756 2.49384 6.19113 2.17599C6.96971 1.84741 7.79828 1.67956 8.65363 1.67956C9.50899 1.67956 10.3376 1.84563 11.1161 2.17599C11.8697 2.49384 12.5465 2.95099 13.1286 3.53134C13.7108 4.1117 14.1661 4.78849 14.4858 5.54027C14.8161 6.31884 14.9822 7.14563 14.9822 8.00099C14.9822 8.85634 14.8143 9.68313 14.4858 10.4617C14.1679 11.2135 13.7108 11.8903 13.1286 12.4706C12.5465 13.051 11.8697 13.5081 11.1161 13.826C10.3369 14.1551 9.49947 14.3239 8.65363 14.3224C7.79828 14.3224 6.96971 14.1546 6.19113 13.826C5.43904 13.5085 4.75561 13.0482 4.17863 12.4706C4.03756 12.3296 3.90542 12.1831 3.77863 12.0331C3.72506 11.9671 3.64292 11.9296 3.55899 11.9296H2.30363C2.19113 11.9296 2.12149 12.0546 2.18399 12.1492C3.55185 14.2724 5.93756 15.6796 8.65363 15.6796C12.8715 15.6796 16.2965 12.2849 16.3393 8.07956C16.3822 3.80634 12.9518 0.333129 8.67328 0.322415ZM6.41113 10.001V8.64384H0.80399C0.725419 8.64384 0.661133 8.57956 0.661133 8.50099V7.50099C0.661133 7.42242 0.725419 7.35813 0.80399 7.35813H6.41113V6.00099C6.41113 5.88134 6.55042 5.81349 6.64328 5.88849L9.1772 7.88849C9.19428 7.90185 9.20809 7.91892 9.21758 7.93842C9.22708 7.95791 9.23202 7.9793 9.23202 8.00099C9.23202 8.02267 9.22708 8.04407 9.21758 8.06356C9.20809 8.08305 9.19428 8.10012 9.1772 8.11349L6.64328 10.1135C6.55042 10.1867 6.41113 10.1206 6.41113 10.001Z" fill="#D9D9D9"/>
</g>
<defs>
<clipPath id="clip0_329_324">
<rect width="16" height="16" fill="white" transform="translate(0.5)"/>
</clipPath>
</defs>
</svg>
